<svg width="42.000000" height="42.000000" viewBox="0 0 42 42" fill="none" xmlns="http://www.w3.org/2000/svg" xmlns:xlink="http://www.w3.org/1999/xlink">
	<desc>
			Created with Pixso.
	</desc>
	<defs/>
	<rect id="Rectangle 14" rx="21.000000" width="42.000000" height="42.000000" fill="#1E1E2D" fill-opacity="1.000000"/>
	<rect id="Rectangle 14" x="0.500000" y="0.500000" rx="20.500000" width="41.000000" height="41.000000" stroke="#707070" stroke-opacity="0" stroke-width="1.000000"/>
	<path id="Vector" d="M27.7 26.02C27.45 26.65 27.15 27.23 26.81 27.76C26.34 28.49 25.95 28.99 25.66 29.27C25.2 29.73 24.71 29.96 24.18 29.97C23.8 29.97 23.34 29.86 22.81 29.62C22.28 29.39 21.79 29.27 21.34 29.27C20.87 29.27 20.37 29.39 19.83 29.62C19.29 29.86 18.85 29.98 18.52 29.99C18.01 30.02 17.51 29.78 17.01 29.27C16.69 28.97 16.28 28.45 15.8 27.71C15.29 26.92 14.86 26.01 14.53 24.97C14.17 23.85 14 22.76 14 21.71C14 20.5 14.24 19.46 14.72 18.59C15.1 17.89 15.6 17.33 16.23 16.93C16.86 16.52 17.54 16.32 18.28 16.3C18.68 16.3 19.21 16.44 19.86 16.7C20.51 16.97 20.93 17.1 21.12 17.1C21.25 17.1 21.72 16.95 22.51 16.63C23.26 16.34 23.89 16.22 24.4 16.27C25.8 16.39 26.85 16.99 27.55 18.06C26.3 18.88 25.68 20.03 25.69 21.51C25.7 22.66 26.09 23.61 26.84 24.37C27.19 24.72 27.57 24.99 28 25.19C27.9 25.48 27.81 25.76 27.7 26.02ZM24.49 12.36C24.49 13.26 24.19 14.1 23.59 14.87C22.85 15.8 21.97 16.33 21.01 16.25C21 16.14 20.99 16.02 20.99 15.91C20.99 15.04 21.34 14.12 21.96 13.36C22.27 12.98 22.66 12.66 23.13 12.41C23.61 12.16 24.06 12.02 24.48 12C24.49 12.12 24.49 12.24 24.49 12.36Z" fill="#FFFFFF" fill-opacity="1.000000" fill-rule="nonzero"/>
	<path id="Vector" d="" fill="#707070" fill-opacity="0" fill-rule="evenodd"/>
</svg>
