<svg width="20" height="19" viewBox="0 0 20 19" fill="none" xmlns="http://www.w3.org/2000/svg">
<path fill-rule="evenodd" clip-rule="evenodd" d="M6 0C2.686 0 0 2.6863 0 6V13C0 16.3137 2.686 19 6 19H14C17.314 19 20 16.3137 20 13V6C20 2.6863 17.314 0 14 0H6ZM4.75 5.5C4.75 5.0858 5.086 4.75 5.5 4.75H10C10.414 4.75 10.75 5.0858 10.75 5.5C10.75 5.9142 10.414 6.25 10 6.25H5.5C5.086 6.25 4.75 5.9142 4.75 5.5ZM16.5 9.75C16.5 10.1642 16.164 10.5 15.75 10.5C15.336 10.5 15 10.1642 15 9.75C15 9.3358 15.336 9 15.75 9C16.164 9 16.5 9.3358 16.5 9.75ZM18.5001 6.18457H15.9871C13.8971 6.18457 12.2041 7.87807 12.2041 9.96727C12.2041 12.0564 13.8971 13.75 15.9871 13.75H18.4381H18.5001V12.25H15.9871C14.7261 12.25 13.7041 11.228 13.7041 9.96727C13.7041 8.70657 14.7261 7.68457 15.9871 7.68457H18.5001V6.18457Z" fill="#8B8B94"/>
</svg>
