<svg width="24.000000" height="24.000000" viewBox="0 0 24 24" fill="none" xmlns="http://www.w3.org/2000/svg" xmlns:xlink="http://www.w3.org/1999/xlink">
	<desc>
			Created with Pixso.
	</desc>
	<defs/>
	<rect id="vuesax/linear/check" rx="0.000000" width="23.000000" height="23.000000" transform="translate(0.500000 0.500000)" fill="#FFFFFF" fill-opacity="0"/>
	<path id="Vector" d="M11.02 19.5L7.5 19.5C6.87 19.5 6.33 19.48 5.83 19.41C3.2 19.12 2.5 17.87 2.5 14.5L2.5 9.5C2.5 6.12 3.2 4.88 5.83 4.58C6.33 4.52 6.87 4.5 7.5 4.5L10.96 4.5" stroke="#FFFFFF" stroke-opacity="1.000000" stroke-width="1.500000" stroke-linejoin="round" stroke-linecap="round"/>
	<path id="Vector" d="M15.02 4.5L16.5 4.5C17.12 4.5 17.66 4.52 18.16 4.58C20.79 4.88 21.5 6.12 21.5 9.5L21.5 14.5C21.5 17.87 20.79 19.12 18.16 19.41C17.66 19.48 17.12 19.5 16.5 19.5L15.02 19.5" stroke="#FFFFFF" stroke-opacity="1.000000" stroke-width="1.500000" stroke-linejoin="round" stroke-linecap="round"/>
	<path id="Vector" d="M15 2L15 22" stroke="#FFFFFF" stroke-opacity="1.000000" stroke-width="1.500000" stroke-linejoin="round" stroke-linecap="round"/>
	<path id="Vector" d="M8 8.5L8 15.5" stroke="#FFFFFF" stroke-opacity="1.000000" stroke-width="1.500000" stroke-linejoin="round" stroke-linecap="round"/>
	<g opacity="0.000000"/>
</svg>
