<svg width="42.000000" height="42.000000" viewBox="0 0 42 42" fill="none" xmlns="http://www.w3.org/2000/svg" xmlns:xlink="http://www.w3.org/1999/xlink">
	<desc>
			Created with Pixso.
	</desc>
	<defs/>
	<rect id="Rectangle 16" rx="21.000000" width="42.000000" height="42.000000" fill="#1E1E2D" fill-opacity="1.000000"/>
	<rect id="Rectangle 16" x="0.500000" y="0.500000" rx="20.500000" width="41.000000" height="41.000000" stroke="#707070" stroke-opacity="0" stroke-width="1.000000"/>
	<path id="Path" d="" fill="#FFFFFF" fill-opacity="0" fill-rule="nonzero"/>
	<path id="Path" d="M15.37 16L27.99 16C28.65 16 29.12 16.61 28.96 17.24L27.62 22.63C27.41 23.45 26.72 24.05 25.88 24.13L19.06 24.82C18.04 24.92 17.12 24.24 16.9 23.24L15.37 16Z" stroke="#E16364" stroke-opacity="1.000000" stroke-width="1.500000" stroke-linejoin="round"/>
	<path id="Path" d="M16.08 15.82L16.1 15.84C16.19 16.25 15.94 16.64 15.53 16.73C15.12 16.82 14.73 16.56 14.64 16.15L14.65 16.13L16.08 15.82ZM13.02 13.73L13 13.75C12.58 13.75 12.25 13.41 12.25 13C12.25 12.58 12.58 12.25 13 12.25L13.02 12.27L13.02 13.73Z" fill="#FFFFFF" fill-opacity="0" fill-rule="nonzero"/>
	<path id="Path" d="M15.37 16L14.72 13L13 13" stroke="#E16364" stroke-opacity="1.000000" stroke-width="1.500000" stroke-linejoin="round" stroke-linecap="round"/>
	<path id="Path" d="" fill="#FFFFFF" fill-opacity="0" fill-rule="nonzero"/>
	<path id="Path" d="M26.24 28.63C26.24 28.83 26.4 28.99 26.61 28.99C26.81 28.99 26.97 28.83 26.97 28.63C26.97 28.43 26.81 28.26 26.6 28.26C26.4 28.26 26.24 28.43 26.24 28.63Z" stroke="#E16364" stroke-opacity="1.000000" stroke-width="1.500000" stroke-linejoin="round"/>
	<path id="Path" d="" fill="#FFFFFF" fill-opacity="0" fill-rule="nonzero"/>
	<path id="Path" d="M17.83 28.63C17.83 28.83 17.99 28.99 18.19 28.99C18.4 28.99 18.56 28.83 18.56 28.63C18.56 28.43 18.4 28.26 18.19 28.26C17.99 28.26 17.83 28.43 17.83 28.63Z" stroke="#E16364" stroke-opacity="1.000000" stroke-width="1.500000" stroke-linejoin="round"/>
</svg>
