<svg width="18" height="18" viewBox="0 0 18 18" fill="none" xmlns="http://www.w3.org/2000/svg">
<path fill-rule="evenodd" clip-rule="evenodd" d="M13 18H5C2.2386 18 0 15.7614 0 13V8.19998C0 6.68108 0.690498 5.24447 1.8765 4.29568L5.8765 1.09567C7.7026 -0.365225 10.2974 -0.365225 12.1235 1.09567L16.1235 4.29568C17.3096 5.24447 18 6.68108 18 8.19998V13C18 15.7614 15.7614 18 13 18ZM4.81445 12.9182C4.81445 12.504 5.15024 12.1682 5.56445 12.1682H12.3005C12.7147 12.1682 13.0505 12.504 13.0505 12.9182C13.0505 13.3324 12.7147 13.6682 12.3005 13.6682H5.56445C5.15024 13.6682 4.81445 13.3324 4.81445 12.9182Z" fill="#0066FF"/>
</svg>
