<svg width="63.000000" height="63.085693" viewBox="0 0 63 63.0857" fill="none" xmlns="http://www.w3.org/2000/svg" xmlns:xlink="http://www.w3.org/1999/xlink">
	<desc>
			Created with Pixso.
	</desc>
	<defs>
		<clipPath id="clip32_1753">
			<rect id="mastercard" rx="0.000000" width="61.033543" height="61.119263" transform="translate(0.983228 0.983228)" fill="white" fill-opacity="0"/>
		</clipPath>
	</defs>
	<rect id="mastercard" rx="0.000000" width="61.033543" height="61.119263" transform="translate(0.983228 0.983228)" fill="#FFFFFF" fill-opacity="0"/>
	<g clip-path="url(#clip32_1753)">
		<path id="Vector" d="M63 31.54C63 41.95 54.6 50.46 44.1 50.46C33.7 50.46 25.2 41.95 25.2 31.54C25.2 21.12 33.6 12.61 44 12.61C54.6 12.61 63 21.12 63 31.54Z" fill="#FFB600" fill-opacity="1.000000" fill-rule="nonzero"/>
		<path id="Vector" d="M44.1 12.61C54.5 12.61 63 21.12 63 31.54C63 41.95 54.6 50.46 44.1 50.46C33.7 50.46 25.2 41.95 25.2 31.54L44.1 12.61Z" fill="#F7981D" fill-opacity="1.000000" fill-rule="nonzero"/>
		<path id="Vector" d="M44.09 12.61C54.49 12.61 62.99 21.12 62.99 31.54C62.99 41.95 54.59 50.46 44.09 50.46L44.09 12.61Z" fill="#FF8500" fill-opacity="1.000000" fill-rule="nonzero"/>
		<path id="Vector" d="M18.7 12.61C8.39 12.71 0 21.12 0 31.54C0 41.95 8.39 50.46 18.89 50.46C23.79 50.46 28.2 48.56 31.6 45.56C32.29 44.96 32.89 44.26 33.5 43.55L29.6 43.55C29.1 42.95 28.6 42.25 28.2 41.65L34.89 41.65C35.29 41.05 35.7 40.35 36 39.65L27.1 39.65C26.79 39.05 26.5 38.35 26.29 37.65L36.7 37.65C37.29 35.74 37.7 33.74 37.7 31.64C37.7 30.24 37.5 28.93 37.29 27.63L25.7 27.63C25.79 26.93 26 26.33 26.2 25.63L36.6 25.63C36.39 24.93 36.1 24.23 35.79 23.63L27 23.63C27.29 22.93 27.7 22.33 28.1 21.62L34.79 21.62C34.39 20.92 33.89 20.22 33.29 19.62L29.6 19.62C30.2 18.92 30.79 18.32 31.5 17.72C28.2 14.61 23.7 12.81 18.79 12.81C18.79 12.61 18.79 12.61 18.7 12.61Z" fill="#FF5050" fill-opacity="1.000000" fill-rule="nonzero"/>
		<path id="Vector" d="M0 31.54C0 41.95 8.39 50.46 18.89 50.46C23.79 50.46 28.2 48.56 31.6 45.56C32.29 44.96 32.89 44.26 33.5 43.55L29.6 43.55C29.1 42.95 28.6 42.25 28.2 41.65L34.89 41.65C35.29 41.05 35.7 40.35 36 39.65L27.1 39.65C26.79 39.05 26.5 38.35 26.29 37.65L36.7 37.65C37.29 35.74 37.7 33.74 37.7 31.64C37.7 30.24 37.5 28.93 37.29 27.63L25.7 27.63C25.79 26.93 26 26.33 26.2 25.63L36.6 25.63C36.39 24.93 36.1 24.23 35.79 23.63L27 23.63C27.29 22.93 27.7 22.33 28.1 21.62L34.79 21.62C34.39 20.92 33.89 20.22 33.29 19.62L29.6 19.62C30.2 18.92 30.79 18.32 31.5 17.72C28.2 14.61 23.7 12.81 18.79 12.81L18.7 12.81L0 31.54Z" fill="#E52836" fill-opacity="1.000000" fill-rule="nonzero"/>
		<path id="Vector" d="M18.9 50.46C23.8 50.46 28.2 48.56 31.6 45.56C32.3 44.96 32.9 44.26 33.5 43.55L29.6 43.55C29.1 42.95 28.6 42.25 28.2 41.65L34.9 41.65C35.3 41.05 35.7 40.35 36 39.65L27.1 39.65C26.8 39.05 26.5 38.35 26.3 37.65L36.7 37.65C37.3 35.74 37.7 33.74 37.7 31.64C37.7 30.24 37.5 28.93 37.3 27.63L25.7 27.63C25.8 26.93 26 26.33 26.2 25.63L36.6 25.63C36.4 24.93 36.1 24.23 35.8 23.63L27 23.63C27.3 22.93 27.7 22.33 28.1 21.62L34.8 21.62C34.4 20.92 33.9 20.22 33.3 19.62L29.6 19.62C30.2 18.92 30.8 18.32 31.5 17.72C28.2 14.61 23.7 12.81 18.8 12.81L18.7 12.81L18.9 50.46Z" fill="#CB2026" fill-opacity="1.000000" fill-rule="nonzero"/>
		<path id="Vector" d="M25.6 36.34L25.9 34.64C25.8 34.64 25.6 34.74 25.4 34.74C24.7 34.74 24.6 34.34 24.7 34.14L25.3 30.64L26.4 30.64L26.7 28.73L25.7 28.73L25.9 27.53L23.9 27.53C23.9 27.53 22.7 34.14 22.7 34.94C22.7 36.14 23.4 36.64 24.3 36.64C24.9 36.64 25.4 36.44 25.6 36.34Z" fill="#FFFFFF" fill-opacity="1.000000" fill-rule="nonzero"/>
		<path id="Vector" d="M26.3 33.14C26.3 35.94 28.2 36.64 29.8 36.64C31.3 36.64 31.9 36.34 31.9 36.34L32.3 34.44C32.3 34.44 31.2 34.94 30.2 34.94C28 34.94 28.4 33.34 28.4 33.34L32.5 33.34C32.5 33.34 32.8 32.04 32.8 31.54C32.8 30.24 32.1 28.63 29.9 28.63C27.8 28.43 26.3 30.64 26.3 33.14ZM29.8 30.24C30.9 30.24 30.7 31.54 30.7 31.64L28.5 31.64C28.5 31.54 28.7 30.24 29.8 30.24Z" fill="#FFFFFF" fill-opacity="1.000000" fill-rule="nonzero"/>
		<path id="Vector" d="M42.5 36.34L42.89 34.14C42.89 34.14 41.89 34.64 41.2 34.64C39.79 34.64 39.2 33.54 39.2 32.34C39.2 29.94 40.39 28.63 41.79 28.63C42.79 28.63 43.6 29.23 43.6 29.23L43.89 27.13C43.89 27.13 42.7 26.63 41.6 26.63C39.29 26.63 37 28.63 37 32.44C37 34.94 38.2 36.64 40.6 36.64C41.39 36.64 42.5 36.34 42.5 36.34Z" fill="#FFFFFF" fill-opacity="1.000000" fill-rule="nonzero"/>
		<path id="Vector" d="M14.6 28.43C13.2 28.43 12.2 28.83 12.2 28.83L11.9 30.54C11.9 30.54 12.8 30.14 14.1 30.14C14.8 30.14 15.4 30.24 15.4 30.84C15.4 31.24 15.3 31.34 15.3 31.34C15.3 31.34 14.7 31.34 14.4 31.34C12.7 31.34 10.8 32.04 10.8 34.34C10.8 36.14 12 36.54 12.7 36.54C14.1 36.54 14.7 35.64 14.8 35.64L14.7 36.44L16.5 36.44L17.3 30.94C17.3 28.53 15.3 28.43 14.6 28.43ZM15 32.94C15 33.24 14.8 34.84 13.6 34.84C13 34.84 12.8 34.34 12.8 34.04C12.8 33.54 13.1 32.84 14.6 32.84C14.9 32.94 15 32.94 15 32.94Z" fill="#FFFFFF" fill-opacity="1.000000" fill-rule="nonzero"/>
		<path id="Vector" d="M19.2 36.54C19.7 36.54 22.2 36.64 22.2 33.94C22.2 31.44 19.8 31.94 19.8 30.94C19.8 30.44 20.2 30.24 20.9 30.24C21.2 30.24 22.3 30.34 22.3 30.34L22.6 28.53C22.6 28.53 21.9 28.33 20.7 28.33C19.2 28.33 17.7 28.93 17.7 30.94C17.7 33.24 20.2 33.04 20.2 33.94C20.2 34.54 19.5 34.64 19 34.64C18.1 34.64 17.2 34.34 17.2 34.34L16.9 36.14C17 36.34 17.5 36.54 19.2 36.54Z" fill="#FFFFFF" fill-opacity="1.000000" fill-rule="nonzero"/>
		<path id="Vector" d="M59.1 26.83L58.7 29.54C58.7 29.54 57.9 28.53 56.8 28.53C55 28.53 53.4 30.74 53.4 33.34C53.4 34.94 54.2 36.64 55.9 36.64C57.1 36.64 57.8 35.84 57.8 35.84L57.7 36.54L59.7 36.54L61.2 26.93L59.1 26.83ZM58.2 32.14C58.2 33.24 57.7 34.64 56.6 34.64C55.9 34.64 55.5 34.04 55.5 33.04C55.5 31.44 56.2 30.44 57.1 30.44C57.8 30.44 58.2 30.94 58.2 32.14Z" fill="#FFFFFF" fill-opacity="1.000000" fill-rule="nonzero"/>
		<path id="Vector" d="M3.7 36.44L4.9 29.23L5.1 36.44L6.5 36.44L9.1 29.23L8 36.44L10.1 36.44L11.7 26.83L8.4 26.83L6.4 32.74L6.3 26.83L3.4 26.83L1.8 36.44L3.7 36.44Z" fill="#FFFFFF" fill-opacity="1.000000" fill-rule="nonzero"/>
		<path id="Vector" d="M34.7 36.44C35.29 33.14 35.39 30.44 36.79 30.94C37 29.63 37.29 29.13 37.5 28.63C37.5 28.63 37.39 28.63 37.1 28.63C36.2 28.63 35.5 29.84 35.5 29.84L35.7 28.73L33.79 28.73L32.5 36.54L34.7 36.54L34.7 36.44Z" fill="#FFFFFF" fill-opacity="1.000000" fill-rule="nonzero"/>
		<path id="Vector" d="M47.1 28.43C45.7 28.43 44.7 28.83 44.7 28.83L44.4 30.54C44.4 30.54 45.3 30.14 46.6 30.14C47.3 30.14 47.9 30.24 47.9 30.84C47.9 31.24 47.8 31.34 47.8 31.34C47.8 31.34 47.2 31.34 46.9 31.34C45.2 31.34 43.3 32.04 43.3 34.34C43.3 36.14 44.5 36.54 45.2 36.54C46.6 36.54 47.2 35.64 47.3 35.64L47.2 36.44L49 36.44L49.8 30.94C49.9 28.53 47.8 28.43 47.1 28.43ZM47.6 32.94C47.6 33.24 47.4 34.84 46.2 34.84C45.6 34.84 45.4 34.34 45.4 34.04C45.4 33.54 45.7 32.84 47.2 32.84C47.5 32.94 47.5 32.94 47.6 32.94Z" fill="#FFFFFF" fill-opacity="1.000000" fill-rule="nonzero"/>
		<path id="Vector" d="M51.5 36.44C52.1 33.14 52.2 30.44 53.6 30.94C53.8 29.63 54.1 29.13 54.3 28.63C54.3 28.63 54.2 28.63 53.9 28.63C53 28.63 52.3 29.84 52.3 29.84L52.5 28.73L50.6 28.73L49.3 36.54L51.5 36.54L51.5 36.44Z" fill="#FFFFFF" fill-opacity="1.000000" fill-rule="nonzero"/>
		<path id="Vector" d="M22.5 34.94C22.5 36.14 23.2 36.64 24.1 36.64C24.79 36.64 25.39 36.44 25.6 36.34L25.89 34.64C25.79 34.64 25.6 34.74 25.39 34.74C24.7 34.74 24.6 34.34 24.7 34.14L25.29 30.64L26.39 30.64L26.7 28.73L25.7 28.73L25.89 27.53L22.5 34.94Z" fill="#DCE5E5" fill-opacity="1.000000" fill-rule="nonzero"/>
		<path id="Vector" d="M27.29 33.14C27.29 35.94 28.19 36.64 29.79 36.64C31.29 36.64 31.89 36.34 31.89 36.34L32.29 34.44C32.29 34.44 31.19 34.94 30.19 34.94C28 34.94 28.39 33.34 28.39 33.34L32.5 33.34C32.5 33.34 32.79 32.04 32.79 31.54C32.79 30.24 32.09 28.63 29.89 28.63C27.79 28.43 27.29 30.64 27.29 33.14ZM29.79 30.24C30.89 30.24 31.09 31.54 31.09 31.64L28.5 31.64C28.5 31.54 28.69 30.24 29.79 30.24Z" fill="#DCE5E5" fill-opacity="1.000000" fill-rule="nonzero"/>
		<path id="Vector" d="M42.5 36.34L42.89 34.14C42.89 34.14 41.89 34.64 41.2 34.64C39.79 34.64 39.2 33.54 39.2 32.34C39.2 29.94 40.39 28.63 41.79 28.63C42.79 28.63 43.6 29.23 43.6 29.23L43.89 27.13C43.89 27.13 42.7 26.63 41.6 26.63C39.29 26.63 38 28.63 38 32.44C38 34.94 38.2 36.64 40.6 36.64C41.39 36.64 42.5 36.34 42.5 36.34Z" fill="#DCE5E5" fill-opacity="1.000000" fill-rule="nonzero"/>
		<path id="Vector" d="M11.9 30.64C11.9 30.64 12.8 30.24 14.1 30.24C14.8 30.24 15.4 30.34 15.4 30.94C15.4 31.34 15.3 31.44 15.3 31.44C15.3 31.44 14.7 31.44 14.4 31.44C12.7 31.44 10.8 32.14 10.8 34.44C10.8 36.24 12 36.64 12.7 36.64C14.1 36.64 14.7 35.74 14.8 35.74L14.7 36.54L16.5 36.54L17.3 31.04C17.3 28.73 15.3 28.63 14.5 28.63L11.9 30.64ZM16 32.94C16 33.24 14.8 34.84 13.6 34.84C13 34.84 12.8 34.34 12.8 34.04C12.8 33.54 13.1 32.84 14.6 32.84C14.9 32.94 16 32.94 16 32.94Z" fill="#DCE5E5" fill-opacity="1.000000" fill-rule="nonzero"/>
		<path id="Vector" d="M17 36.34C17 36.34 17.6 36.54 19.3 36.54C19.8 36.54 22.3 36.64 22.3 33.94C22.3 31.44 19.9 31.94 19.9 30.94C19.9 30.44 20.3 30.24 21 30.24C21.3 30.24 22.4 30.34 22.4 30.34L22.7 28.53C22.7 28.53 22 28.33 20.8 28.33C19.3 28.33 18.8 28.93 18.8 30.94C18.8 33.24 20.3 33.04 20.3 33.94C20.3 34.54 19.6 34.64 19.1 34.64L17 36.34Z" fill="#DCE5E5" fill-opacity="1.000000" fill-rule="nonzero"/>
		<path id="Vector" d="M58.69 29.53C58.69 29.53 57.89 28.53 56.79 28.53C55 28.53 54.39 30.74 54.39 33.34C54.39 34.94 54.19 36.64 55.89 36.64C57.09 36.64 57.79 35.84 57.79 35.84L57.69 36.54L59.69 36.54L61.19 26.93L58.69 29.53ZM58.59 32.14C58.59 33.24 57.69 34.64 56.59 34.64C55.89 34.64 55.5 34.04 55.5 33.04C55.5 31.44 56.19 30.44 57.09 30.44C57.79 30.44 58.59 30.94 58.59 32.14Z" fill="#DCE5E5" fill-opacity="1.000000" fill-rule="nonzero"/>
		<path id="Vector" d="M3.7 36.44L4.9 29.23L5.1 36.44L6.5 36.44L9.1 29.23L8 36.44L10.1 36.44L11.7 26.83L9.2 26.83L6.4 32.74L6.3 26.83L5.2 26.83L1.8 36.44L3.7 36.44Z" fill="#DCE5E5" fill-opacity="1.000000" fill-rule="nonzero"/>
		<path id="Vector" d="M32.6 36.44L34.7 36.44C35.3 33.14 35.39 30.44 36.8 30.94C37 29.63 37.3 29.13 37.5 28.63C37.5 28.63 37.39 28.63 37.1 28.63C36.2 28.63 35.5 29.84 35.5 29.84L35.7 28.73L32.6 36.44Z" fill="#DCE5E5" fill-opacity="1.000000" fill-rule="nonzero"/>
		<path id="Vector" d="M44.4 30.64C44.4 30.64 45.3 30.24 46.6 30.24C47.3 30.24 47.9 30.34 47.9 30.94C47.9 31.34 47.8 31.44 47.8 31.44C47.8 31.44 47.2 31.44 46.9 31.44C45.2 31.44 43.3 32.14 43.3 34.44C43.3 36.24 44.5 36.64 45.2 36.64C46.6 36.64 47.2 35.74 47.3 35.74L47.2 36.54L49 36.54L49.8 31.04C49.8 28.73 47.8 28.63 47 28.63L44.4 30.64ZM48.5 32.94C48.5 33.24 47.3 34.84 46.1 34.84C45.5 34.84 45.3 34.34 45.3 34.04C45.3 33.54 45.6 32.84 47.1 32.84C47.5 32.94 48.5 32.94 48.5 32.94Z" fill="#DCE5E5" fill-opacity="1.000000" fill-rule="nonzero"/>
		<path id="Vector" d="M49.4 36.44L51.5 36.44C52.1 33.14 52.2 30.44 53.6 30.94C53.8 29.63 54.1 29.13 54.3 28.63C54.3 28.63 54.2 28.63 53.9 28.63C53 28.63 52.3 29.84 52.3 29.84L52.5 28.73L49.4 36.44Z" fill="#DCE5E5" fill-opacity="1.000000" fill-rule="nonzero"/>
	</g>
</svg>
