<svg width="42.000000" height="42.000000" viewBox="0 0 42 42" fill="none" xmlns="http://www.w3.org/2000/svg" xmlns:xlink="http://www.w3.org/1999/xlink">
	<desc>
			Created with Pixso.
	</desc>
	<defs/>
	<rect id="Rectangle 16" rx="21.000000" width="42.000000" height="42.000000" fill="#1E1E2D" fill-opacity="1.000000"/>
	<rect id="Rectangle 16" x="0.500000" y="0.500000" rx="20.500000" width="41.000000" height="41.000000" stroke="#707070" stroke-opacity="0" stroke-width="1.000000"/>
	<path id="Path" d="M24.06 19.64L24.06 19.61C24.33 19.33 24.77 19.33 25.05 19.61C25.32 19.89 25.32 20.32 25.05 20.6L25.02 20.6L24.06 19.64ZM16.97 20.6L16.94 20.6C16.67 20.32 16.67 19.89 16.94 19.61C17.22 19.33 17.66 19.33 17.93 19.61L17.93 19.64L16.97 20.6Z" fill="#FFFFFF" fill-opacity="0" fill-rule="nonzero"/>
	<path id="Path" d="M24.55 20.11L21 23.66L17.44 20.11" stroke="#FFFFFF" stroke-opacity="1.000000" stroke-width="1.400000" stroke-linejoin="round" stroke-linecap="round"/>
	<path id="Path" d="M20.32 13.02L20.3 13C20.3 12.6 20.6 12.3 21 12.3C21.39 12.3 21.7 12.6 21.7 13L21.68 13.02L20.32 13.02ZM21.68 23.64L21.7 23.66C21.7 24.05 21.39 24.36 21 24.36C20.6 24.36 20.3 24.05 20.3 23.66L20.32 23.64L21.68 23.64Z" fill="#FFFFFF" fill-opacity="0" fill-rule="nonzero"/>
	<path id="Path" d="M21 13L21 23.66" stroke="#FFFFFF" stroke-opacity="1.000000" stroke-width="1.400000" stroke-linejoin="round" stroke-linecap="round"/>
	<path id="Path" d="M28.31 25.46L28.29 25.44C28.29 25.05 28.6 24.74 29 24.74C29.39 24.74 29.7 25.05 29.7 25.44L29.68 25.46L28.31 25.46ZM12.31 25.46L12.29 25.44C12.29 25.05 12.6 24.74 13 24.74C13.39 24.74 13.7 25.05 13.7 25.44L13.68 25.46L12.31 25.46Z" fill="#FFFFFF" fill-opacity="0" fill-rule="nonzero"/>
	<path id="Path" d="M29 25.44C29 27.4 27.4 29 25.44 29L16.55 29C14.59 29 13 27.4 13 25.44" stroke="#FFFFFF" stroke-opacity="1.000000" stroke-width="1.400000" stroke-linejoin="round" stroke-linecap="round"/>
</svg>
