<svg width="54.000000" height="54.000000" viewBox="0 0 54 54" fill="none" xmlns="http://www.w3.org/2000/svg" xmlns:xlink="http://www.w3.org/1999/xlink">
	<desc>
			Created with Pixso.
	</desc>
	<defs/>
	<rect id="Rectangle 10" rx="27.000000" width="54.000000" height="54.000000" fill="#1E1E2D" fill-opacity="1.000000"/>
	<rect id="Rectangle 10" x="0.500000" y="0.500000" rx="26.500000" width="53.000000" height="53.000000" stroke="#707070" stroke-opacity="0" stroke-width="1.000000"/>
	<path id="Path" d="M26.75 19.03L26.73 19.01C26.73 18.59 27.06 18.26 27.48 18.26C27.9 18.26 28.23 18.59 28.23 19.01L28.21 19.03L26.75 19.03ZM28.21 35.23L28.23 35.25C28.23 35.67 27.9 36 27.48 36C27.06 36 26.73 35.67 26.73 35.25L26.75 35.23L28.21 35.23Z" fill="#FFFFFF" fill-opacity="0" fill-rule="nonzero"/>
	<path id="Path" d="M27.48 19.01L27.48 35.25" stroke="#FFFFFF" stroke-opacity="1.000000" stroke-width="1.500000" stroke-linejoin="round" stroke-linecap="round"/>
	<path id="Path" d="M21.53 26.01L21.53 26.04C21.23 26.34 20.76 26.34 20.47 26.04C20.17 25.75 20.17 25.28 20.46 24.98L20.49 24.98L21.53 26.01ZM34.45 24.98L34.48 24.98C34.77 25.28 34.77 25.75 34.47 26.04C34.18 26.34 33.71 26.34 33.41 26.04L33.41 26.01L34.45 24.98Z" fill="#FFFFFF" fill-opacity="0" fill-rule="nonzero"/>
	<path id="Path" d="M21 25.51L27.47 19L33.95 25.51" stroke="#FFFFFF" stroke-opacity="1.000000" stroke-width="1.500000" stroke-linejoin="round" stroke-linecap="round"/>
</svg>
