<svg width="54.000000" height="54.000000" viewBox="0 0 54 54" fill="none" xmlns="http://www.w3.org/2000/svg" xmlns:xlink="http://www.w3.org/1999/xlink">
	<desc>
			Created with Pixso.
	</desc>
	<defs/>
	<rect id="Rectangle 7" rx="27.000000" width="54.000000" height="54.000000" fill="#1E1E2D" fill-opacity="1.000000"/>
	<rect id="Rectangle 7" x="0.500000" y="0.500000" rx="26.500000" width="53.000000" height="53.000000" stroke="#707070" stroke-opacity="0" stroke-width="1.000000"/>
	<path id="Path" d="M28.21 35.21L28.23 35.23C28.23 35.65 27.9 35.98 27.48 35.98C27.06 35.98 26.73 35.65 26.73 35.23L26.75 35.21L28.21 35.21ZM26.75 19.02L26.73 19C26.73 18.58 27.06 18.25 27.48 18.25C27.9 18.25 28.23 18.58 28.23 19L28.21 19.02L26.75 19.02Z" fill="#FFFFFF" fill-opacity="0" fill-rule="nonzero"/>
	<path id="Path" d="M27.48 35.23L27.48 19" stroke="#FFFFFF" stroke-opacity="1.000000" stroke-width="1.500000" stroke-linejoin="round" stroke-linecap="round"/>
	<path id="Path" d="M20.49 29.26L20.46 29.26C20.17 28.96 20.17 28.49 20.47 28.2C20.76 27.9 21.23 27.9 21.53 28.2L21.53 28.23L20.49 29.26ZM33.41 28.23L33.41 28.2C33.71 27.9 34.18 27.9 34.47 28.2C34.77 28.49 34.77 28.96 34.48 29.26L34.45 29.26L33.41 28.23Z" fill="#FFFFFF" fill-opacity="0" fill-rule="nonzero"/>
	<path id="Path" d="M21 28.73L27.47 35.25L33.95 28.73" stroke="#FFFFFF" stroke-opacity="1.000000" stroke-width="1.500000" stroke-linejoin="round" stroke-linecap="round"/>
</svg>
