<svg width="54.000000" height="54.000000" viewBox="0 0 54 54" fill="none" xmlns="http://www.w3.org/2000/svg" xmlns:xlink="http://www.w3.org/1999/xlink">
	<desc>
			Created with Pixso.
	</desc>
	<defs/>
	<rect id="Rectangle 9" rx="27.000000" width="54.000000" height="54.000000" fill="#1E1E2D" fill-opacity="1.000000"/>
	<rect id="Rectangle 9" x="0.500000" y="0.500000" rx="26.500000" width="53.000000" height="53.000000" stroke="#707070" stroke-opacity="0" stroke-width="1.000000"/>
	<path id="Path" d="M27.62 39.06L27.64 39.08C27.64 39.5 27.31 39.83 26.89 39.83C26.47 39.83 26.14 39.5 26.14 39.08L26.16 39.06L27.62 39.06ZM26.16 23.6L26.14 23.58C26.14 23.16 26.47 22.83 26.89 22.83C27.31 22.83 27.64 23.16 27.64 23.58L27.62 23.6L26.16 23.6Z" fill="#FFFFFF" fill-opacity="0" fill-rule="nonzero"/>
	<path id="Path" d="M26.89 39.08L26.89 23.58" stroke="#FFFFFF" stroke-opacity="1.000000" stroke-width="1.500000" stroke-linejoin="round" stroke-linecap="round"/>
	<path id="Path" d="M22.93 28.57L22.93 28.6C22.64 28.9 22.18 28.91 21.87 28.62C21.57 28.33 21.56 27.86 21.85 27.56L21.88 27.56L22.93 28.57ZM31.44 27.59L31.46 27.59C31.74 27.91 31.7 28.38 31.38 28.65C31.06 28.92 30.6 28.88 30.32 28.57L30.33 28.54L31.44 27.59Z" fill="#FFFFFF" fill-opacity="0" fill-rule="nonzero"/>
	<path id="Path" d="M22.39 28.08L26.89 23.4L30.89 28.08" stroke="#FFFFFF" stroke-opacity="1.000000" stroke-width="1.500000" stroke-linejoin="round" stroke-linecap="round"/>
	<path id="Path" d="M31.25 31.89L31.23 31.91C30.81 31.91 30.48 31.58 30.48 31.16C30.48 30.74 30.81 30.41 31.23 30.41L31.25 30.43L31.25 31.89ZM22.54 30.43L22.56 30.41C22.98 30.41 23.31 30.74 23.31 31.16C23.31 31.58 22.98 31.91 22.56 31.91L22.54 31.89L22.54 30.43Z" fill="#FFFFFF" fill-opacity="0" fill-rule="nonzero"/>
	<path id="Path" d="M31.23 31.16L34 31.16C36.09 31.16 37.79 29.46 37.79 27.37C37.79 25.28 36.09 23.58 34 23.58L33.53 23.58L33.53 22.5C33.53 18.91 30.61 16 27.03 16C23.8 16 21.13 18.35 20.62 21.44C18.05 21.57 16 23.68 16 26.29C16 28.98 18.18 31.16 20.87 31.16L22.56 31.16" stroke="#FFFFFF" stroke-opacity="1.000000" stroke-width="1.500000" stroke-linejoin="round" stroke-linecap="round"/>
</svg>
