<svg width="60.000000" height="60.000000" viewBox="0 0 60 60" fill="none" xmlns="http://www.w3.org/2000/svg" xmlns:xlink="http://www.w3.org/1999/xlink">
	<desc>
			Created with Pixso.
	</desc>
	<defs/>
	<circle id="BG" cx="30.000000" cy="30.000000" r="30.000000" fill="#293038" fill-opacity="1.000000"/>
	<rect id="Iconly/Light/Scan" rx="0.000000" width="27.000000" height="27.000000" transform="translate(16.500000 16.500000)" fill="#FFFFFF" fill-opacity="0"/>
	<path id="Path_33950" d="M40.12 26.29L40.12 25.05C40.12 23.82 39.63 22.64 38.76 21.76C37.89 20.89 36.71 20.41 35.48 20.41L34.58 20.41" stroke="#FFFFFF" stroke-opacity="1.000000" stroke-width="2.000000" stroke-linejoin="round" stroke-linecap="round"/>
	<path id="Path_33951" d="M20.78 26.29L20.78 25.05C20.77 23.82 21.26 22.64 22.13 21.77C23 20.9 24.18 20.41 25.41 20.41L26.34 20.41" stroke="#FFFFFF" stroke-opacity="1.000000" stroke-width="2.000000" stroke-linejoin="round" stroke-linecap="round"/>
	<path id="Path_33952" d="M40.12 31L40.12 35.11C40.12 36.34 39.63 37.52 38.76 38.39C37.89 39.27 36.71 39.75 35.48 39.75L34.58 39.75" stroke="#FFFFFF" stroke-opacity="1.000000" stroke-width="2.000000" stroke-linejoin="round" stroke-linecap="round"/>
	<path id="Path_33953" d="M20.78 31L20.78 35.11C20.77 36.34 21.26 37.52 22.13 38.39C23 39.27 24.19 39.75 25.42 39.75L26.34 39.75" stroke="#FFFFFF" stroke-opacity="1.000000" stroke-width="2.000000" stroke-linejoin="round" stroke-linecap="round"/>
	<path id="Line_187" d="M42.19 31L18.66 31" stroke="#FFFFFF" stroke-opacity="1.000000" stroke-width="2.000000" stroke-linejoin="round" stroke-linecap="round"/>
</svg>
