<svg width="16" height="16" viewBox="0 0 16 16" fill="none" xmlns="http://www.w3.org/2000/svg">
<path fill-rule="evenodd" clip-rule="evenodd" d="M11.4321 0.313955L10.8491 0.119956C10.3892 -0.0340449 9.88116 0.0799555 9.53014 0.414956L8.92415 0.994956C8.41015 1.48696 7.59713 1.47796 7.09414 0.974956L6.50216 0.382955C6.10415 -0.0150439 5.49615 -0.114045 4.99215 0.137956L4.44213 0.412956C4.00814 0.629955 3.73015 1.06996 3.71813 1.55496L3.70016 2.39296C3.68514 3.10496 3.10415 3.67296 2.39214 3.67296H1.55514C0.992148 3.67296 0.492148 4.03396 0.314139 4.56796L0.120139 5.15095C-0.0338532 5.61096 0.08013 6.11895 0.417136 6.47096L0.997153 7.07695C1.48916 7.59095 1.48015 8.40396 0.977133 8.90696L0.385153 9.49896C-0.0128571 9.89696 -0.111856 10.505 0.140158 11.009L0.415152 11.559C0.632132 11.993 1.07213 12.272 1.55715 12.282L2.39513 12.3C3.10714 12.315 3.67513 12.896 3.67513 13.608V14.445C3.67513 15.008 4.03615 15.508 4.57015 15.686L5.15316 15.88C5.61416 16.034 6.12115 15.92 6.47213 15.584L7.07815 15.004C7.59215 14.512 8.40514 14.521 8.90813 15.024L9.50014 15.616C9.89815 16.014 10.5062 16.113 11.0102 15.861L11.5601 15.586C11.9941 15.369 12.2732 14.929 12.2831 14.444L12.3011 13.606C12.3162 12.894 12.8971 12.326 13.6092 12.326H14.4462C15.0091 12.326 15.5091 11.965 15.6872 11.431L15.8812 10.848C16.0351 10.387 15.9211 9.87996 15.5851 9.52896L15.0051 8.92296C14.5131 8.40896 14.5221 7.59596 15.0251 7.09296L15.6171 6.50095C16.0152 6.10296 16.1142 5.49496 15.8621 4.99095L15.5871 4.44096C15.3701 4.00696 14.9301 3.72796 14.4452 3.71796L13.6071 3.69996C12.8951 3.68496 12.3271 3.10396 12.3271 2.39196V1.55496C12.3271 0.991956 11.9661 0.491956 11.4321 0.313955ZM9.76799 9.76783C10.744 8.79153 10.744 7.20853 9.76799 6.23223C8.79097 5.25593 7.209 5.25593 6.23198 6.23223C5.256 7.20853 5.256 8.79153 6.23198 9.76783C7.209 10.7441 8.79097 10.7441 9.76799 9.76783Z" fill="#8B8B94"/>
</svg>
