<svg width="42.000000" height="42.000000" viewBox="0 0 42 42" fill="none" xmlns="http://www.w3.org/2000/svg" xmlns:xlink="http://www.w3.org/1999/xlink">
	<desc>
			Created with Pixso.
	</desc>
	<defs/>
	<rect id="Rectangle 15" rx="21.000000" width="42.000000" height="42.000000" fill="#1E1E2D" fill-opacity="1.000000"/>
	<rect id="Rectangle 15" x="0.500000" y="0.500000" rx="20.500000" width="41.000000" height="41.000000" stroke="#707070" stroke-opacity="0" stroke-width="1.000000"/>
	<path id="Path" d="M26.8 16.19C29.73 19.12 29.73 23.87 26.8 26.8C23.87 29.73 19.12 29.73 16.19 26.8C13.26 23.87 13.26 19.12 16.19 16.19C19.12 13.26 23.87 13.26 26.8 16.19Z" fill="#1FAA47" fill-opacity="1.000000" fill-rule="nonzero"/>
	<path id="Path" d="" fill="#707070" fill-opacity="0" fill-rule="evenodd"/>
	<path id="Path" d="M17.16 19.56L17.14 19.59C16.88 19.67 16.6 19.52 16.52 19.25C16.44 18.98 16.59 18.71 16.86 18.63L16.89 18.64L17.16 19.56ZM26.54 19.63L26.57 19.62C26.8 19.77 26.87 20.08 26.72 20.31C26.57 20.55 26.27 20.62 26.03 20.47L26.03 20.44L26.54 19.63Z" fill="#FFFFFF" fill-opacity="0" fill-rule="nonzero"/>
	<path id="Path" d="M17 19.11C20.19 18.16 24.36 18.82 26.3 20.05" stroke="#FFFFFF" stroke-opacity="1.000000" stroke-width="1.000000" stroke-linejoin="round" stroke-linecap="round"/>
	<path id="Path" d="M17.55 21.99L17.53 22.02C17.27 22.1 16.99 21.96 16.91 21.69C16.83 21.42 16.97 21.15 17.24 21.06L17.26 21.08L17.55 21.99ZM25.59 22.06L25.62 22.05C25.86 22.2 25.92 22.51 25.77 22.74C25.62 22.98 25.32 23.04 25.08 22.89L25.08 22.87L25.59 22.06Z" fill="#FFFFFF" fill-opacity="0" fill-rule="nonzero"/>
	<path id="Path" d="M17.39 21.54C20.2 20.66 23.52 21.29 25.35 22.47" stroke="#FFFFFF" stroke-opacity="1.000000" stroke-width="1.000000" stroke-linejoin="round" stroke-linecap="round"/>
	<path id="Path" d="M17.72 24.26L17.71 24.28C17.44 24.34 17.17 24.17 17.11 23.9C17.05 23.63 17.22 23.37 17.49 23.3L17.51 23.32L17.72 24.26ZM24.77 24.15L24.8 24.14C25.04 24.28 25.11 24.58 24.97 24.83C24.83 25.07 24.52 25.14 24.28 25L24.28 24.97L24.77 24.15Z" fill="#FFFFFF" fill-opacity="0" fill-rule="nonzero"/>
	<path id="Path" d="M17.6 23.79C20.73 23.09 22.9 23.58 24.54 24.57" stroke="#FFFFFF" stroke-opacity="1.000000" stroke-width="1.000000" stroke-linejoin="round" stroke-linecap="round"/>
</svg>
