<svg width="20" height="20" viewBox="0 0 20 20" fill="none" xmlns="http://www.w3.org/2000/svg">
<path fill-rule="evenodd" clip-rule="evenodd" d="M8.5 4C4.358 4 1 7.358 1 11.5C1 15.642 4.358 19 8.5 19C12.642 19 16 15.642 16 11.5H8.5V4Z" stroke="#8B8B94" stroke-width="1.5" stroke-linecap="round" stroke-linejoin="round"/>
<path d="M8.5 19.5L4.5 17.5L1.5 14.5V9.5L3.5 6L8.5 4V11.5H15.5L16 13.5L12 18L8.5 19.5Z" fill="#8B8B94"/>
<path fill-rule="evenodd" clip-rule="evenodd" d="M19 8C19 4.134 15.866 1 12 1V8H19Z" stroke="#8B8B94" stroke-width="1.5" stroke-linecap="round" stroke-linejoin="round"/>
<path d="M12 1V7.5V8H19V6.5L17.5 4L15.5 1.5L12 1Z" fill="#8B8B94"/>
</svg>
