<svg width="63.000000" height="63.085693" viewBox="0 0 63 63.0857" fill="none" xmlns="http://www.w3.org/2000/svg" xmlns:xlink="http://www.w3.org/1999/xlink">
	<desc>
			Created with Pixso.
	</desc>
	<defs>
		<clipPath id="clip32_1806">
			<rect id="visa" rx="0.000000" width="61.044716" height="61.130432" transform="translate(0.977641 0.977641)" fill="white" fill-opacity="0"/>
		</clipPath>
	</defs>
	<rect id="visa" rx="0.000000" width="61.044716" height="61.130432" transform="translate(0.977641 0.977641)" fill="#FFFFFF" fill-opacity="0"/>
	<g clip-path="url(#clip32_1806)">
		<path id="Vector" d="M23.1 40.6L26.3 22.58L31.3 22.58L28.2 40.6L23.1 40.6Z" fill="#FFFFFF" fill-opacity="1.000000" fill-rule="nonzero"/>
		<path id="Vector" d="M23.1 40.6L27.2 22.58L31.3 22.58L28.2 40.6L23.1 40.6Z" fill="#FFFFFF" fill-opacity="1.000000" fill-rule="nonzero"/>
		<path id="Vector" d="M46.29 22.78C45.29 22.38 43.7 21.97 41.7 21.97C36.7 21.97 33.1 24.48 33.1 28.08C33.1 30.79 35.6 32.19 37.6 33.09C39.6 33.99 40.2 34.59 40.2 35.39C40.2 36.59 38.6 37.2 37.2 37.2C35.2 37.2 34.1 36.9 32.39 36.19L31.7 35.89L31 40C32.2 40.5 34.39 41 36.7 41C42 41 45.5 38.5 45.5 34.69C45.5 32.59 44.2 30.99 41.2 29.69C39.39 28.78 38.29 28.28 38.29 27.38C38.29 26.58 39.2 25.78 41.2 25.78C42.89 25.78 44.1 26.08 45 26.48L45.5 26.68L46.29 22.78Z" fill="#FFFFFF" fill-opacity="1.000000" fill-rule="nonzero"/>
		<path id="Vector" d="M46.29 22.78C45.29 22.38 43.7 21.97 41.7 21.97C36.7 21.97 34 24.48 34 28.08C34 30.79 35.6 32.19 37.6 33.09C39.6 33.99 40.2 34.59 40.2 35.39C40.2 36.59 38.6 37.2 37.2 37.2C35.2 37.2 34.1 36.9 32.39 36.19L31.7 35.89L31 40C32.2 40.5 34.39 41 36.7 41C42 41 45.5 38.5 45.5 34.69C45.5 32.59 44.2 30.99 41.2 29.69C39.39 28.78 38.29 28.28 38.29 27.38C38.29 26.58 39.2 25.78 41.2 25.78C42.89 25.78 44.1 26.08 45 26.48L45.5 26.68L46.29 22.78Z" fill="#FFFFFF" fill-opacity="1.000000" fill-rule="nonzero"/>
		<path id="Vector" d="M54.89 22.58C53.69 22.58 52.79 22.68 52.29 23.88L44.79 40.6L50.19 40.6L51.19 37.6L57.59 37.6L58.19 40.6L63 40.6L58.79 22.58L54.89 22.58ZM52.59 34.59C52.89 33.69 54.59 29.28 54.59 29.28C54.59 29.28 55 28.18 55.29 27.48L55.59 29.18C55.59 29.18 56.59 33.69 56.79 34.69L52.59 34.69L52.59 34.59Z" fill="#FFFFFF" fill-opacity="1.000000" fill-rule="nonzero"/>
		<path id="Vector" d="M56.09 22.58C54.89 22.58 54 22.68 53.5 23.88L44.79 40.6L50.19 40.6L51.19 37.6L57.59 37.6L58.19 40.6L63 40.6L58.79 22.58L56.09 22.58ZM52.59 34.59C53 33.59 54.59 29.28 54.59 29.28C54.59 29.28 55 28.18 55.29 27.48L55.59 29.18C55.59 29.18 56.59 33.69 56.79 34.69L52.59 34.69L52.59 34.59Z" fill="#FFFFFF" fill-opacity="1.000000" fill-rule="nonzero"/>
		<path id="Vector" d="M13.89 35.19L13.39 32.59C12.5 29.59 9.6 26.28 6.39 24.68L10.89 40.7L16.29 40.7L24.39 22.68L19 22.68L13.89 35.19Z" fill="#FFFFFF" fill-opacity="1.000000" fill-rule="nonzero"/>
		<path id="Vector" d="M13.89 35.19L13.39 32.59C12.5 29.59 9.6 26.28 6.39 24.68L10.89 40.7L16.29 40.7L24.39 22.68L20 22.68L13.89 35.19Z" fill="#FFFFFF" fill-opacity="1.000000" fill-rule="nonzero"/>
		<path id="Vector" d="M0 22.58L0.89 22.78C7.29 24.28 11.7 28.08 13.39 32.59L11.6 24.08C11.29 22.88 10.39 22.58 9.29 22.58L0 22.58Z" fill="#FFFFFF" fill-opacity="1.000000" fill-rule="nonzero"/>
		<path id="Vector" d="M0 22.58C6.39 24.08 11.7 27.98 13.39 32.49L11.7 25.38C11.39 24.18 10.39 23.48 9.29 23.48L0 22.58Z" fill="#FFFFFF" fill-opacity="1.000000" fill-rule="nonzero"/>
		<path id="Vector" d="M0 22.58C6.39 24.08 11.7 27.98 13.39 32.49L12.2 28.58C11.89 27.38 11.5 26.18 10.1 25.68L0 22.58Z" fill="#FFFFFF" fill-opacity="1.000000" fill-rule="nonzero"/>
		<path id="Vector" d="M18.89 34.59L15.5 31.19L13.89 34.99L13.5 32.49C12.6 29.49 9.7 26.18 6.5 24.58L11 40.6L16.39 40.6L18.89 34.59Z" fill="#FFFFFF" fill-opacity="1.000000" fill-rule="nonzero"/>
		<path id="Vector" d="M28.2 40.6L23.9 36.19L23.1 40.6L28.2 40.6Z" fill="#FFFFFF" fill-opacity="1.000000" fill-rule="nonzero"/>
		<path id="Vector" d="M39.7 34.39C40.1 34.79 40.29 35.09 40.2 35.49C40.2 36.69 38.6 37.3 37.2 37.3C35.2 37.3 34.1 37 32.39 36.29L31.7 35.99L31 40.1C32.2 40.6 34.39 41.1 36.7 41.1C39.89 41.1 42.5 40.2 44 38.6L39.7 34.39Z" fill="#FFFFFF" fill-opacity="1.000000" fill-rule="nonzero"/>
		<path id="Vector" d="M45.5 40.6L50.2 40.6L51.2 37.6L57.6 37.6L58.2 40.6L63 40.6L61.29 33.29L55.29 27.48L55.6 29.08C55.6 29.08 56.6 33.59 56.79 34.59L52.6 34.59C53 33.59 54.6 29.28 54.6 29.28C54.6 29.28 55 28.18 55.29 27.48L45.5 40.6Z" fill="#FFFFFF" fill-opacity="1.000000" fill-rule="nonzero"/>
	</g>
</svg>
