<svg width="54.000000" height="54.000000" viewBox="0 0 54 54" fill="none" xmlns="http://www.w3.org/2000/svg" xmlns:xlink="http://www.w3.org/1999/xlink">
	<desc>
			Created with Pixso.
	</desc>
	<defs/>
	<rect id="Rectangle 8" rx="27.000000" width="54.000000" height="54.000000" fill="#1E1E2D" fill-opacity="1.000000"/>
	<rect id="Rectangle 8" x="0.500000" y="0.500000" rx="26.500000" width="53.000000" height="53.000000" stroke="#707070" stroke-opacity="0" stroke-width="1.000000"/>
	<path id="Path" d="M26.32 21.02L26.29 21C26.29 20.6 26.6 20.29 27 20.29C27.39 20.29 27.7 20.6 27.7 21L27.67 21.02L26.32 21.02ZM27.67 22.48L27.7 22.5C27.7 22.89 27.39 23.2 27 23.2C26.6 23.2 26.29 22.89 26.29 22.5L26.32 22.48L27.67 22.48Z" fill="#FFFFFF" fill-opacity="0" fill-rule="nonzero"/>
	<path id="Path" d="M27 21L27 22.5" stroke="#FFFFFF" stroke-opacity="1.000000" stroke-width="1.400000" stroke-linejoin="round" stroke-linecap="round"/>
	<path id="Path" d="M27.67 32.98L27.7 33C27.7 33.39 27.39 33.7 27 33.7C26.6 33.7 26.29 33.39 26.29 33L26.32 32.98L27.67 32.98ZM26.32 31.52L26.29 31.5C26.29 31.1 26.6 30.8 27 30.8C27.39 30.8 27.7 31.1 27.7 31.5L27.67 31.52L26.32 31.52Z" fill="#FFFFFF" fill-opacity="0" fill-rule="nonzero"/>
	<path id="Path" d="M27 33L27 31.5" stroke="#FFFFFF" stroke-opacity="1.000000" stroke-width="1.400000" stroke-linejoin="round" stroke-linecap="round"/>
	<path id="Path" d="M30.66 24.53L30.68 24.55C30.7 24.94 30.42 25.27 30.03 25.29C29.63 25.32 29.31 25.03 29.28 24.64L29.3 24.62L30.66 24.53ZM23.33 29.46L23.31 29.44C23.28 29.05 23.57 28.72 23.96 28.7C24.35 28.67 24.68 28.96 24.71 29.35L24.69 29.37L23.33 29.46Z" fill="#FFFFFF" fill-opacity="0" fill-rule="nonzero"/>
	<path id="Path" d="M29.98 24.6C29.9 23.42 28.94 22.5 27.75 22.5L26.1 22.5C24.94 22.5 24 23.44 24 24.6C24 25.57 24.65 26.41 25.59 26.64L28.4 27.35C29.34 27.59 29.99 28.43 29.99 29.39C29.99 30.56 29.05 31.5 27.89 31.5L26.24 31.5C25.05 31.5 24.08 30.57 24.01 29.4" stroke="#FFFFFF" stroke-opacity="1.000000" stroke-width="1.400000" stroke-linejoin="round" stroke-linecap="round"/>
	<rect id="Rectangle 11" x="15.000000" y="15.000000" rx="12.000000" width="24.000000" height="24.000000" fill="#FFFFFF" fill-opacity="0"/>
	<rect id="Rectangle 11" x="15.750000" y="15.750000" rx="11.250000" width="22.500000" height="22.500000" stroke="#FFFFFF" stroke-opacity="1.000000" stroke-width="1.500000"/>
</svg>
